<?xml version="1.0" encoding="utf-8"?>
<svg viewBox="175.088 108.613 151.017 190.078" xmlns="http://www.w3.org/2000/svg">
  <g transform="matrix(0.10000000149011612, 0, 0, -0.10000000149011612, 3.552713678800501e-15, 500)" fill="#000000" stroke="none">
    <path d="M2643 3732 l-333 -167 0 -220 0 -221 -147 -73 -148 -73 3 -429 4 -429 -126 0 -126 0 0 -45 0 -45 170 0 170 0 0 448 0 447 95 48 c52 26 97 47 100 47 3 0 5 -223 5 -495 l0 -495 195 0 195 0 0 640 c-1 400 -5 640 -11 640 -5 0 -68 -29 -139 -65 -71 -36 -134 -65 -140 -65 -6 0 -10 60 -10 163 l0 164 243 121 c133 67 245 122 250 122 4 0 7 -387 7 -860 l0 -860 171 0 170 0 -3 43 -3 42 -122 3 -123 3 0 889 c0 490 -3 890 -7 889 -5 0 -158 -75 -340 -167z m-43 -1092 l0 -520 -100 0 -100 0 0 474 0 473 88 46 c48 25 93 46 100 46 9 1 12 -109 12 -519z"/>
    <path d="M1736 1629 c-3 -8 -7 -41 -8 -74 l-3 -60 -37 58 c-53 80 -68 76 -68 -18 0 -60 3 -75 15 -75 11 0 15 12 15 47 l0 48 36 -53 c52 -78 68 -70 72 37 2 48 -2 89 -7 94 -7 7 -12 6 -15 -4z"/>
    <path d="M2217 1634 c-4 -4 -7 -36 -7 -71 0 -74 -7 -74 -47 -3 -17 30 -35 50 -45 50 -16 0 -18 -10 -18 -75 0 -60 3 -75 15 -75 11 0 15 12 15 47 l0 48 36 -53 c52 -78 68 -70 72 37 3 78 -5 111 -21 95z"/>
    <path d="M2330 1621 c-24 -7 -25 -10 -22 -71 2 -36 5 -73 8 -82 6 -21 37 -32 64 -23 30 10 24 25 -10 25 -25 0 -30 4 -30 24 0 18 6 26 22 28 32 5 33 26 1 30 -43 5 -39 41 5 48 18 3 33 10 33 15 0 12 -38 16 -71 6z"/>
    <path d="M2954 1615 c-9 -22 10 -170 21 -170 6 0 11 10 13 23 2 14 15 27 37 36 55 23 70 82 27 105 -34 17 -93 21 -98 6z m77 -25 c26 -14 24 -36 -6 -56 -30 -20 -45 -11 -45 25 0 42 14 50 51 31z"/>
    <path d="M1442 1613 c-7 -3 -19 -18 -27 -33 -35 -67 -5 -134 59 -134 47 0 76 28 83 82 5 34 1 44 -20 66 -25 25 -62 32 -95 19z m82 -56 c13 -37 -10 -81 -44 -85 -45 -7 -65 52 -34 96 23 33 65 26 78 -11z"/>
    <path d="M1833 1604 c-8 -21 5 -136 16 -147 12 -12 81 0 81 13 0 6 -13 10 -29 10 -29 0 -29 1 -36 70 -7 67 -19 88 -32 54z"/>
    <path d="M2000 1535 c0 -65 3 -86 13 -82 8 2 12 28 12 82 0 54 -4 80 -12 83 -10 3 -13 -18 -13 -83z"/>
    <path d="M2590 1536 c0 -71 3 -86 15 -86 13 0 15 14 13 82 -2 54 -7 83 -15 86 -10 3 -13 -18 -13 -82z"/>
    <path d="M2695 1573 c-3 -27 -8 -63 -11 -80 -4 -25 -1 -33 10 -33 10 0 17 14 21 38 4 20 8 42 9 47 2 6 12 -11 24 -37 11 -27 26 -48 32 -48 5 0 20 20 32 45 22 46 38 50 38 10 0 -34 10 -55 27 -55 11 0 14 7 10 23 -3 12 -9 43 -12 69 -11 76 -29 80 -63 11 l-30 -58 -28 58 c-15 31 -34 57 -40 57 -8 0 -15 -20 -19 -47z"/>
    <path d="M3177 1603 c-25 -29 -68 -136 -59 -145 5 -5 16 2 26 16 23 36 73 36 82 1 6 -25 18 -32 28 -17 6 10 -18 112 -33 140 -14 27 -23 27 -44 5z m33 -54 c0 -20 -25 -37 -37 -25 -3 3 -1 17 5 32 13 28 32 24 32 -7z"/>
    <path d="M3517 1611 c-42 -7 -54 -24 -21 -29 19 -3 22 -12 28 -73 5 -47 11 -69 19 -66 8 3 11 27 9 74 l-3 70 30 6 c17 4 31 11 31 17 0 11 -31 11 -93 1z"/>
    <path d="M3325 1585 c-32 -31 -34 -86 -5 -115 24 -24 82 -27 100 -5 18 22 4 31 -24 16 -34 -19 -66 0 -66 39 0 38 24 60 67 60 30 0 34 2 23 15 -19 23 -68 18 -95 -10z"/>
  </g>
</svg>